<mxfile host="app.diagrams.net" modified="2024-04-02T11:53:00.780Z" agent="Mozilla/5.0 (Windows NT 10.0; Win64; x64) AppleWebKit/537.36 (KHTML, like Gecko) Chrome/123.0.0.0 Safari/537.36" etag="3rH6GW5sCBWaz3Pn0P5g" version="24.2.0" type="device">
  <diagram name="Página-1" id="qJOfrS9qw_YbrTrqkZ-V">
    <mxGraphModel dx="1434" dy="738" grid="1" gridSize="10" guides="1" tooltips="1" connect="1" arrows="1" fold="1" page="1" pageScale="1" pageWidth="827" pageHeight="1169" math="0" shadow="0">
      <root>
        <mxCell id="0" />
        <mxCell id="1" parent="0" />
        <mxCell id="0xBgSpml7eq0PEiL7iCG-1" value="Projeto: Aluguel de Carros&lt;div&gt;MER DER Conceitual&lt;/div&gt;" style="text;html=1;align=center;verticalAlign=middle;whiteSpace=wrap;rounded=0;" vertex="1" parent="1">
          <mxGeometry x="329" y="30" width="170" height="50" as="geometry" />
        </mxCell>
        <mxCell id="0xBgSpml7eq0PEiL7iCG-2" value="Cliente" style="whiteSpace=wrap;html=1;align=center;fillColor=#ffe6cc;strokeColor=#d79b00;" vertex="1" parent="1">
          <mxGeometry x="80" y="195" width="100" height="40" as="geometry" />
        </mxCell>
        <mxCell id="0xBgSpml7eq0PEiL7iCG-3" value="Veículo" style="whiteSpace=wrap;html=1;align=center;fillColor=#ffe6cc;strokeColor=#d79b00;" vertex="1" parent="1">
          <mxGeometry x="640" y="195" width="100" height="40" as="geometry" />
        </mxCell>
        <mxCell id="0xBgSpml7eq0PEiL7iCG-4" value="Aluguel" style="whiteSpace=wrap;html=1;align=center;fillColor=#ffe6cc;strokeColor=#d79b00;" vertex="1" parent="1">
          <mxGeometry x="360" y="195" width="100" height="40" as="geometry" />
        </mxCell>
        <mxCell id="0xBgSpml7eq0PEiL7iCG-8" style="rounded=0;orthogonalLoop=1;jettySize=auto;html=1;exitX=0.5;exitY=0;exitDx=0;exitDy=0;endArrow=none;endFill=0;strokeColor=#CC6600;" edge="1" parent="1" source="0xBgSpml7eq0PEiL7iCG-5" target="0xBgSpml7eq0PEiL7iCG-2">
          <mxGeometry relative="1" as="geometry" />
        </mxCell>
        <mxCell id="0xBgSpml7eq0PEiL7iCG-5" value="cpf" style="ellipse;whiteSpace=wrap;html=1;align=center;fontStyle=4;fillColor=#fff2cc;strokeColor=#d6b656;" vertex="1" parent="1">
          <mxGeometry x="20" y="265" width="80" height="30" as="geometry" />
        </mxCell>
        <mxCell id="0xBgSpml7eq0PEiL7iCG-6" value="nome_cliente" style="ellipse;whiteSpace=wrap;html=1;align=center;fillColor=#fff2cc;strokeColor=#d6b656;" vertex="1" parent="1">
          <mxGeometry x="90" y="305" width="80" height="30" as="geometry" />
        </mxCell>
        <mxCell id="0xBgSpml7eq0PEiL7iCG-7" value="telefones" style="ellipse;shape=doubleEllipse;margin=3;whiteSpace=wrap;html=1;align=center;fillColor=#fff2cc;strokeColor=#d6b656;" vertex="1" parent="1">
          <mxGeometry x="150" y="265" width="80" height="30" as="geometry" />
        </mxCell>
        <mxCell id="0xBgSpml7eq0PEiL7iCG-9" style="rounded=0;orthogonalLoop=1;jettySize=auto;html=1;exitX=0.5;exitY=0;exitDx=0;exitDy=0;endArrow=none;endFill=0;entryX=0.5;entryY=1;entryDx=0;entryDy=0;strokeColor=#CC6600;" edge="1" parent="1" source="0xBgSpml7eq0PEiL7iCG-6" target="0xBgSpml7eq0PEiL7iCG-2">
          <mxGeometry relative="1" as="geometry">
            <mxPoint x="70" y="275" as="sourcePoint" />
            <mxPoint x="112" y="245" as="targetPoint" />
          </mxGeometry>
        </mxCell>
        <mxCell id="0xBgSpml7eq0PEiL7iCG-10" style="rounded=0;orthogonalLoop=1;jettySize=auto;html=1;exitX=0.5;exitY=0;exitDx=0;exitDy=0;endArrow=none;endFill=0;entryX=0.75;entryY=1;entryDx=0;entryDy=0;strokeColor=#CC6600;" edge="1" parent="1" source="0xBgSpml7eq0PEiL7iCG-7" target="0xBgSpml7eq0PEiL7iCG-2">
          <mxGeometry relative="1" as="geometry">
            <mxPoint x="140" y="315" as="sourcePoint" />
            <mxPoint x="122" y="255" as="targetPoint" />
          </mxGeometry>
        </mxCell>
        <mxCell id="0xBgSpml7eq0PEiL7iCG-11" value="reserva" style="shape=rhombus;perimeter=rhombusPerimeter;whiteSpace=wrap;html=1;align=center;fillColor=#e1d5e7;strokeColor=#9673a6;" vertex="1" parent="1">
          <mxGeometry x="230" y="190" width="80" height="50" as="geometry" />
        </mxCell>
        <mxCell id="0xBgSpml7eq0PEiL7iCG-12" value="1" style="rounded=0;orthogonalLoop=1;jettySize=auto;html=1;exitX=0;exitY=0.5;exitDx=0;exitDy=0;endArrow=none;endFill=0;entryX=1;entryY=0.5;entryDx=0;entryDy=0;strokeColor=#CC6600;" edge="1" parent="1" source="0xBgSpml7eq0PEiL7iCG-11" target="0xBgSpml7eq0PEiL7iCG-2">
          <mxGeometry relative="1" as="geometry">
            <mxPoint x="200" y="275" as="sourcePoint" />
            <mxPoint x="165" y="245" as="targetPoint" />
          </mxGeometry>
        </mxCell>
        <mxCell id="0xBgSpml7eq0PEiL7iCG-13" value="N" style="rounded=0;orthogonalLoop=1;jettySize=auto;html=1;exitX=0;exitY=0.5;exitDx=0;exitDy=0;endArrow=none;endFill=0;entryX=1;entryY=0.5;entryDx=0;entryDy=0;strokeColor=#CC6600;" edge="1" parent="1" source="0xBgSpml7eq0PEiL7iCG-4" target="0xBgSpml7eq0PEiL7iCG-11">
          <mxGeometry relative="1" as="geometry">
            <mxPoint x="240" y="225" as="sourcePoint" />
            <mxPoint x="190" y="225" as="targetPoint" />
          </mxGeometry>
        </mxCell>
        <mxCell id="0xBgSpml7eq0PEiL7iCG-14" value="posui" style="shape=rhombus;perimeter=rhombusPerimeter;whiteSpace=wrap;html=1;align=center;fillColor=#e1d5e7;strokeColor=#9673a6;" vertex="1" parent="1">
          <mxGeometry x="510" y="190" width="80" height="50" as="geometry" />
        </mxCell>
        <mxCell id="0xBgSpml7eq0PEiL7iCG-15" value="1" style="rounded=0;orthogonalLoop=1;jettySize=auto;html=1;exitX=0;exitY=0.5;exitDx=0;exitDy=0;endArrow=none;endFill=0;entryX=1;entryY=0.5;entryDx=0;entryDy=0;strokeColor=#CC6600;" edge="1" parent="1" source="0xBgSpml7eq0PEiL7iCG-3" target="0xBgSpml7eq0PEiL7iCG-14">
          <mxGeometry relative="1" as="geometry">
            <mxPoint x="380" y="225" as="sourcePoint" />
            <mxPoint x="330" y="225" as="targetPoint" />
          </mxGeometry>
        </mxCell>
        <mxCell id="0xBgSpml7eq0PEiL7iCG-16" value="N" style="rounded=0;orthogonalLoop=1;jettySize=auto;html=1;exitX=0;exitY=0.5;exitDx=0;exitDy=0;endArrow=none;endFill=0;entryX=1;entryY=0.5;entryDx=0;entryDy=0;strokeColor=#CC6600;" edge="1" parent="1" source="0xBgSpml7eq0PEiL7iCG-14" target="0xBgSpml7eq0PEiL7iCG-4">
          <mxGeometry relative="1" as="geometry">
            <mxPoint x="650" y="230" as="sourcePoint" />
            <mxPoint x="600" y="230" as="targetPoint" />
          </mxGeometry>
        </mxCell>
        <mxCell id="0xBgSpml7eq0PEiL7iCG-17" value="id" style="ellipse;whiteSpace=wrap;html=1;align=center;fontStyle=4;fillColor=#fff2cc;strokeColor=#d6b656;" vertex="1" parent="1">
          <mxGeometry x="286" y="130" width="80" height="30" as="geometry" />
        </mxCell>
        <mxCell id="0xBgSpml7eq0PEiL7iCG-19" value="&lt;span style=&quot;border-bottom: 1px dotted&quot;&gt;cpf&lt;/span&gt;" style="ellipse;whiteSpace=wrap;html=1;align=center;fillColor=#fff2cc;strokeColor=#d6b656;" vertex="1" parent="1">
          <mxGeometry x="372" y="100" width="76" height="30" as="geometry" />
        </mxCell>
        <mxCell id="0xBgSpml7eq0PEiL7iCG-20" value="placa" style="ellipse;whiteSpace=wrap;html=1;align=center;fillColor=#fff2cc;strokeColor=#d6b656;" vertex="1" parent="1">
          <mxGeometry x="442" y="130" width="76" height="30" as="geometry" />
        </mxCell>
        <mxCell id="0xBgSpml7eq0PEiL7iCG-21" value="reserva" style="ellipse;whiteSpace=wrap;html=1;align=center;fillColor=#fff2cc;strokeColor=#d6b656;" vertex="1" parent="1">
          <mxGeometry x="250" y="270" width="80" height="30" as="geometry" />
        </mxCell>
        <mxCell id="0xBgSpml7eq0PEiL7iCG-22" value="retirada" style="ellipse;whiteSpace=wrap;html=1;align=center;fillColor=#fff2cc;strokeColor=#d6b656;" vertex="1" parent="1">
          <mxGeometry x="280" y="310" width="80" height="30" as="geometry" />
        </mxCell>
        <mxCell id="0xBgSpml7eq0PEiL7iCG-23" value="devolucao" style="ellipse;whiteSpace=wrap;html=1;align=center;fillColor=#fff2cc;strokeColor=#d6b656;" vertex="1" parent="1">
          <mxGeometry x="330" y="350" width="80" height="30" as="geometry" />
        </mxCell>
        <mxCell id="0xBgSpml7eq0PEiL7iCG-24" value="dias" style="ellipse;whiteSpace=wrap;html=1;align=center;dashed=1;fillColor=#fff2cc;strokeColor=#d6b656;" vertex="1" parent="1">
          <mxGeometry x="420" y="350" width="80" height="30" as="geometry" />
        </mxCell>
        <mxCell id="0xBgSpml7eq0PEiL7iCG-25" value="status" style="ellipse;whiteSpace=wrap;html=1;align=center;dashed=1;fillColor=#fff2cc;strokeColor=#d6b656;" vertex="1" parent="1">
          <mxGeometry x="460" y="310" width="80" height="30" as="geometry" />
        </mxCell>
        <mxCell id="0xBgSpml7eq0PEiL7iCG-26" value="subtotal" style="ellipse;whiteSpace=wrap;html=1;align=center;dashed=1;fillColor=#fff2cc;strokeColor=#d6b656;" vertex="1" parent="1">
          <mxGeometry x="480" y="270" width="80" height="30" as="geometry" />
        </mxCell>
        <mxCell id="0xBgSpml7eq0PEiL7iCG-27" style="rounded=0;orthogonalLoop=1;jettySize=auto;html=1;exitX=0.5;exitY=0;exitDx=0;exitDy=0;endArrow=none;endFill=0;entryX=0.25;entryY=1;entryDx=0;entryDy=0;strokeColor=#CC6600;" edge="1" parent="1" source="0xBgSpml7eq0PEiL7iCG-21" target="0xBgSpml7eq0PEiL7iCG-4">
          <mxGeometry relative="1" as="geometry">
            <mxPoint x="200" y="275" as="sourcePoint" />
            <mxPoint x="165" y="245" as="targetPoint" />
          </mxGeometry>
        </mxCell>
        <mxCell id="0xBgSpml7eq0PEiL7iCG-28" style="rounded=0;orthogonalLoop=1;jettySize=auto;html=1;exitX=0.5;exitY=0;exitDx=0;exitDy=0;endArrow=none;endFill=0;entryX=0.5;entryY=1;entryDx=0;entryDy=0;strokeColor=#CC6600;" edge="1" parent="1" source="0xBgSpml7eq0PEiL7iCG-22" target="0xBgSpml7eq0PEiL7iCG-4">
          <mxGeometry relative="1" as="geometry">
            <mxPoint x="300" y="280" as="sourcePoint" />
            <mxPoint x="395" y="245" as="targetPoint" />
          </mxGeometry>
        </mxCell>
        <mxCell id="0xBgSpml7eq0PEiL7iCG-29" style="rounded=0;orthogonalLoop=1;jettySize=auto;html=1;exitX=0.5;exitY=0;exitDx=0;exitDy=0;endArrow=none;endFill=0;entryX=0.5;entryY=1;entryDx=0;entryDy=0;strokeColor=#CC6600;" edge="1" parent="1" source="0xBgSpml7eq0PEiL7iCG-23" target="0xBgSpml7eq0PEiL7iCG-4">
          <mxGeometry relative="1" as="geometry">
            <mxPoint x="330" y="320" as="sourcePoint" />
            <mxPoint x="405" y="255" as="targetPoint" />
          </mxGeometry>
        </mxCell>
        <mxCell id="0xBgSpml7eq0PEiL7iCG-30" style="rounded=0;orthogonalLoop=1;jettySize=auto;html=1;exitX=0.5;exitY=0;exitDx=0;exitDy=0;endArrow=none;endFill=0;entryX=0.5;entryY=1;entryDx=0;entryDy=0;strokeColor=#CC6600;" edge="1" parent="1" source="0xBgSpml7eq0PEiL7iCG-24" target="0xBgSpml7eq0PEiL7iCG-4">
          <mxGeometry relative="1" as="geometry">
            <mxPoint x="380" y="360" as="sourcePoint" />
            <mxPoint x="415" y="265" as="targetPoint" />
          </mxGeometry>
        </mxCell>
        <mxCell id="0xBgSpml7eq0PEiL7iCG-31" style="rounded=0;orthogonalLoop=1;jettySize=auto;html=1;exitX=0.5;exitY=0;exitDx=0;exitDy=0;endArrow=none;endFill=0;entryX=0.5;entryY=1;entryDx=0;entryDy=0;strokeColor=#CC6600;" edge="1" parent="1" source="0xBgSpml7eq0PEiL7iCG-25" target="0xBgSpml7eq0PEiL7iCG-4">
          <mxGeometry relative="1" as="geometry">
            <mxPoint x="470" y="360" as="sourcePoint" />
            <mxPoint x="425" y="275" as="targetPoint" />
          </mxGeometry>
        </mxCell>
        <mxCell id="0xBgSpml7eq0PEiL7iCG-32" style="rounded=0;orthogonalLoop=1;jettySize=auto;html=1;exitX=0.5;exitY=0;exitDx=0;exitDy=0;endArrow=none;endFill=0;entryX=0.75;entryY=1;entryDx=0;entryDy=0;strokeColor=#CC6600;" edge="1" parent="1" source="0xBgSpml7eq0PEiL7iCG-26" target="0xBgSpml7eq0PEiL7iCG-4">
          <mxGeometry relative="1" as="geometry">
            <mxPoint x="510" y="320" as="sourcePoint" />
            <mxPoint x="435" y="285" as="targetPoint" />
          </mxGeometry>
        </mxCell>
        <mxCell id="0xBgSpml7eq0PEiL7iCG-33" style="rounded=0;orthogonalLoop=1;jettySize=auto;html=1;exitX=0.5;exitY=1;exitDx=0;exitDy=0;endArrow=none;endFill=0;entryX=0.25;entryY=0;entryDx=0;entryDy=0;strokeColor=#CC6600;" edge="1" parent="1" source="0xBgSpml7eq0PEiL7iCG-17" target="0xBgSpml7eq0PEiL7iCG-4">
          <mxGeometry relative="1" as="geometry">
            <mxPoint x="300" y="280" as="sourcePoint" />
            <mxPoint x="395" y="245" as="targetPoint" />
          </mxGeometry>
        </mxCell>
        <mxCell id="0xBgSpml7eq0PEiL7iCG-34" style="rounded=0;orthogonalLoop=1;jettySize=auto;html=1;exitX=0.5;exitY=1;exitDx=0;exitDy=0;endArrow=none;endFill=0;entryX=0.5;entryY=0;entryDx=0;entryDy=0;strokeColor=#CC6600;" edge="1" parent="1" source="0xBgSpml7eq0PEiL7iCG-19" target="0xBgSpml7eq0PEiL7iCG-4">
          <mxGeometry relative="1" as="geometry">
            <mxPoint x="336" y="170" as="sourcePoint" />
            <mxPoint x="395" y="205" as="targetPoint" />
          </mxGeometry>
        </mxCell>
        <mxCell id="0xBgSpml7eq0PEiL7iCG-35" style="rounded=0;orthogonalLoop=1;jettySize=auto;html=1;exitX=0.5;exitY=1;exitDx=0;exitDy=0;endArrow=none;endFill=0;entryX=0.75;entryY=0;entryDx=0;entryDy=0;strokeColor=#CC6600;" edge="1" parent="1" source="0xBgSpml7eq0PEiL7iCG-20" target="0xBgSpml7eq0PEiL7iCG-4">
          <mxGeometry relative="1" as="geometry">
            <mxPoint x="414" y="140" as="sourcePoint" />
            <mxPoint x="420" y="205" as="targetPoint" />
          </mxGeometry>
        </mxCell>
        <mxCell id="0xBgSpml7eq0PEiL7iCG-36" value="placa" style="ellipse;whiteSpace=wrap;html=1;align=center;fontStyle=4;fillColor=#fff2cc;strokeColor=#d6b656;" vertex="1" parent="1">
          <mxGeometry x="570" y="260" width="80" height="30" as="geometry" />
        </mxCell>
        <mxCell id="0xBgSpml7eq0PEiL7iCG-37" value="modelo" style="ellipse;whiteSpace=wrap;html=1;align=center;fillColor=#fff2cc;strokeColor=#d6b656;" vertex="1" parent="1">
          <mxGeometry x="610" y="300" width="80" height="30" as="geometry" />
        </mxCell>
        <mxCell id="0xBgSpml7eq0PEiL7iCG-39" value="marca" style="ellipse;whiteSpace=wrap;html=1;align=center;fillColor=#fff2cc;strokeColor=#d6b656;" vertex="1" parent="1">
          <mxGeometry x="700" y="300" width="80" height="30" as="geometry" />
        </mxCell>
        <mxCell id="0xBgSpml7eq0PEiL7iCG-40" value="tipo" style="ellipse;whiteSpace=wrap;html=1;align=center;fillColor=#fff2cc;strokeColor=#d6b656;" vertex="1" parent="1">
          <mxGeometry x="730" y="260" width="80" height="30" as="geometry" />
        </mxCell>
        <mxCell id="0xBgSpml7eq0PEiL7iCG-42" style="rounded=0;orthogonalLoop=1;jettySize=auto;html=1;exitX=0.5;exitY=0;exitDx=0;exitDy=0;endArrow=none;endFill=0;entryX=0.25;entryY=1;entryDx=0;entryDy=0;strokeColor=#CC6600;" edge="1" parent="1" source="0xBgSpml7eq0PEiL7iCG-36" target="0xBgSpml7eq0PEiL7iCG-3">
          <mxGeometry relative="1" as="geometry">
            <mxPoint x="530" y="280" as="sourcePoint" />
            <mxPoint x="445" y="245" as="targetPoint" />
          </mxGeometry>
        </mxCell>
        <mxCell id="0xBgSpml7eq0PEiL7iCG-43" style="rounded=0;orthogonalLoop=1;jettySize=auto;html=1;exitX=0.5;exitY=0;exitDx=0;exitDy=0;endArrow=none;endFill=0;entryX=0.5;entryY=1;entryDx=0;entryDy=0;strokeColor=#CC6600;" edge="1" parent="1" source="0xBgSpml7eq0PEiL7iCG-37" target="0xBgSpml7eq0PEiL7iCG-3">
          <mxGeometry relative="1" as="geometry">
            <mxPoint x="620" y="270" as="sourcePoint" />
            <mxPoint x="675" y="245" as="targetPoint" />
          </mxGeometry>
        </mxCell>
        <mxCell id="0xBgSpml7eq0PEiL7iCG-44" style="rounded=0;orthogonalLoop=1;jettySize=auto;html=1;exitX=0.5;exitY=0;exitDx=0;exitDy=0;endArrow=none;endFill=0;entryX=0.5;entryY=1;entryDx=0;entryDy=0;strokeColor=#CC6600;" edge="1" parent="1" source="0xBgSpml7eq0PEiL7iCG-39" target="0xBgSpml7eq0PEiL7iCG-3">
          <mxGeometry relative="1" as="geometry">
            <mxPoint x="660" y="310" as="sourcePoint" />
            <mxPoint x="700" y="245" as="targetPoint" />
          </mxGeometry>
        </mxCell>
        <mxCell id="0xBgSpml7eq0PEiL7iCG-45" style="rounded=0;orthogonalLoop=1;jettySize=auto;html=1;exitX=0.5;exitY=0;exitDx=0;exitDy=0;endArrow=none;endFill=0;entryX=0.75;entryY=1;entryDx=0;entryDy=0;strokeColor=#CC6600;" edge="1" parent="1" source="0xBgSpml7eq0PEiL7iCG-40" target="0xBgSpml7eq0PEiL7iCG-3">
          <mxGeometry relative="1" as="geometry">
            <mxPoint x="750" y="310" as="sourcePoint" />
            <mxPoint x="700" y="245" as="targetPoint" />
          </mxGeometry>
        </mxCell>
      </root>
    </mxGraphModel>
  </diagram>
</mxfile>
